<?xml version="1.0" encoding="UTF-8" standalone="no"?>
<svg
   xmlns:dc="http://purl.org/dc/elements/1.1/"
   xmlns:cc="http://creativecommons.org/ns#"
   xmlns:rdf="http://www.w3.org/1999/02/22-rdf-syntax-ns#"
   xmlns:svg="http://www.w3.org/2000/svg"
   xmlns="http://www.w3.org/2000/svg"
   xmlns:sodipodi="http://sodipodi.sourceforge.net/DTD/sodipodi-0.dtd"
   xmlns:inkscape="http://www.inkscape.org/namespaces/inkscape"
   version="1.1"
   id="svg925"
   xml:space="preserve"
   width="1409.9528"
   height="2160"
   viewBox="0 0 1409.9527 2160"
   sodipodi:docname="vertlcase.svg"
   inkscape:version="1.0.1 (c497b03c, 2020-09-10)"><metadata
     id="metadata931"><rdf:RDF><cc:Work
         rdf:about=""><dc:format>image/svg+xml</dc:format><dc:type
           rdf:resource="http://purl.org/dc/dcmitype/StillImage" /><dc:title /></cc:Work></rdf:RDF></metadata><defs
     id="defs929"><clipPath
       clipPathUnits="userSpaceOnUse"
       id="clipPath943"><path
         d="M 0,0 H 1210 V 1893 H 0 Z"
         id="path941" /></clipPath><clipPath
       clipPathUnits="userSpaceOnUse"
       id="clipPath949"><path
         d="M 1198.4,1293.84 C 1198.4,962.914 930.141,694.691 599.215,694.691 268.277,694.691 0,962.914 0,1293.84 c 0,330.96 268.262,599.24 599.215,599.24 330.926,0 599.185,-268.28 599.185,-599.24 z"
         id="path947" /></clipPath></defs><sodipodi:namedview
     pagecolor="#ffffff"
     bordercolor="#666666"
     borderopacity="1"
     objecttolerance="10"
     gridtolerance="10"
     guidetolerance="10"
     inkscape:pageopacity="0"
     inkscape:pageshadow="2"
     inkscape:window-width="1516"
     inkscape:window-height="1181"
     id="namedview927"
     showgrid="false"
     inkscape:zoom="0.19"
     inkscape:cx="705.71642"
     inkscape:cy="1096.1818"
     inkscape:window-x="154"
     inkscape:window-y="88"
     inkscape:window-maximized="0"
     inkscape:current-layer="g935"
     inkscape:document-rotation="0" /><g
     id="g933"
     inkscape:groupmode="layer"
     inkscape:label="ink_ext_XXXXXX"
     transform="matrix(1.3333333,0,0,-1.3333333,625.08302,1210.0061)"><g
       id="g935"
       transform="scale(0.1)"><g
         id="g937"
         transform="matrix(8.82397,0,0,8.82397,-4688.1228,-7628.7294)"><g
           id="g939"
           clip-path="url(#clipPath943)"><g
             id="g945"
             clip-path="url(#clipPath949)"><path
               d="m 74.0859,1235.64 c -45.0078,113.26 -62.6875,194.25 78.3791,218 16.344,3.2 64.422,13.84 64.422,13.84 0,0 59.773,-276.93 -222.98466,-932.199 H 400.137 c 45.406,199.219 29.367,668.229 -10.203,968.399 l 276.546,60.52 c 0,0 108.153,-799.821 358.19,-1028.919 h 193.64 l -3.79,410.035 C 1020.89,1132.61 835.961,1452.75 817.613,1594.86 l 396.907,83.18 -1.9,182.24 C 1171,1852.09 1032.9,1724.77 855.035,1689.73 473.871,1611.5 365.719,1693.79 200.523,1661.25 69.7422,1641.07 -4.1875,1567.98 -4.1875,1567.98 l -127.0195,-377.19 127.0195,-2.45 c 24.125,0 95.9258,2.18 78.2734,47.3 z M 1252.33,404.852 H -48.6133 V 2088.41 H 1252.33 V 404.852"
               style="fill:#346dbf;fill-opacity:1;fill-rule:nonzero;stroke:none"
               id="path951" /></g></g></g><g
         id="g953"
         transform="scale(10)"><text
           transform="scale(1,-1)"
           style="font-variant:normal;font-weight:normal;font-size:543.083px;font-family:Garamond;-inkscape-font-specification:Garamond;writing-mode:lr-tb;fill:#346dbf;fill-opacity:1;fill-rule:nonzero;stroke:none;stroke-width:8.82397"
           id="text957"
           x="-463.26974"
           y="596.3479"><tspan
             x="-463.26974 -175.29681 -40.067692 389.50607"
             y="596.3479"
             sodipodi:role="line"
             id="tspan955"
             style="stroke-width:8.82397">pims</tspan></text></g></g></g></svg>
